<svg width="126" height="77" viewBox="0 0 126 77" fill="none" xmlns="http://www.w3.org/2000/svg">
<path d="M41.762 14.2941H22.4013" stroke="#3A3E46" stroke-width="4" stroke-miterlimit="10" stroke-linecap="round"/>
<path d="M38.6642 27.0479H12.0433" stroke="#3A3E46" stroke-width="4" stroke-miterlimit="10" stroke-linecap="round"/>
<path d="M35.8812 39.8259H2" stroke="#3A3E46" stroke-width="4" stroke-miterlimit="10" stroke-linecap="round"/>
<path d="M29.6373 62.2842H14.1004" stroke="#3A3E46" stroke-width="4" stroke-miterlimit="10" stroke-linecap="round"/>
<path d="M54.419 62.2843H74.1669L87.8161 2H23.7565" stroke="#3A3E46" stroke-width="4" stroke-miterlimit="10" stroke-linecap="round"/>
<path d="M84.4038 19.5698H101.272C115.962 19.5698 126.779 33.2917 123.367 47.5702L119.834 62.2843H110.734" stroke="#3A3E46" stroke-width="4" stroke-miterlimit="10" stroke-linecap="round"/>
<path d="M85.9769 62.2842H74.1669" stroke="#3A3E46" stroke-width="4" stroke-miterlimit="10" stroke-linecap="round"/>
<path d="M42.0282 74.6751C48.8714 74.6751 54.419 69.1275 54.419 62.2843C54.419 55.441 48.8714 49.8934 42.0282 49.8934C35.1849 49.8934 29.6373 55.441 29.6373 62.2843C29.6373 69.1275 35.1849 74.6751 42.0282 74.6751Z" stroke="#3A3E46" stroke-width="4" stroke-miterlimit="10" stroke-linecap="round"/>
<path d="M98.3677 74.6751C105.211 74.6751 110.759 69.1275 110.759 62.2843C110.759 55.441 105.211 49.8934 98.3677 49.8934C91.5244 49.8934 85.9769 55.441 85.9769 62.2843C85.9769 69.1275 91.5244 74.6751 98.3677 74.6751Z" stroke="#3A3E46" stroke-width="4" stroke-miterlimit="10" stroke-linecap="round"/>
</svg>
