<svg width="480" height="100" viewBox="0 0 480 100" fill="none" xmlns="http://www.w3.org/2000/svg">
<path d="M39.0336 29.414L40.128 25.7204H48.6096L45.2808 39.902H36.7536C36.6168 37.7588 35.6592 35.9804 33.7896 34.7492C31.8744 33.4268 29.2752 32.834 25.9008 32.834C23.1648 32.834 20.8848 33.4268 19.3344 34.5212C17.784 35.6156 16.9632 37.0292 16.9632 38.7164C16.9632 40.2668 17.4192 41.4524 18.5136 42.3188C19.608 43.1396 21.7512 44.234 25.08 45.5564L27.816 46.6508C33.5616 49.022 37.3464 51.4388 39.3984 53.81C41.4504 56.1812 42.3624 59.054 42.3624 62.6564C42.3624 67.1708 40.6752 70.7732 37.2096 73.5092C33.744 76.2452 28.728 77.5676 22.2984 77.5676C16.2336 77.5676 11.8104 76.154 9.1656 73.2812L8.5728 76.61H0L3.3288 62.4284H11.9016C11.9016 64.7996 12.996 66.7148 15.0024 68.0372C17.0088 69.3596 19.7904 70.0436 23.256 70.0436C26.22 70.0436 28.6368 69.4508 30.4152 68.2652C32.1936 67.0796 33.06 65.5292 33.06 63.614C33.06 61.6988 32.3304 60.1484 30.78 58.9628C29.2296 57.7772 26.5848 56.318 22.8912 54.9044L19.1976 53.4908C15.3672 51.8036 12.4944 49.8884 10.6248 47.7452C8.7552 45.602 7.8888 42.9572 7.8888 39.8564C7.8888 37.2116 8.6184 34.7036 10.1688 32.5604C11.7192 30.4172 13.8624 28.502 16.7352 27.3164C19.608 25.994 22.7088 25.4012 26.1744 25.4012C31.1448 24.9908 35.568 26.4044 39.0336 29.414Z" fill="#3A3E46"/>
<path d="M102.509 46.1038C102.509 52.1686 101.187 57.6861 98.4506 62.5653C95.7146 67.4445 92.021 71.1381 87.3698 73.9197C82.7186 76.6557 77.7026 77.9781 72.2306 77.9781C67.7162 77.9781 63.6578 77.0205 60.2834 75.2421C56.909 73.4637 54.2186 70.8189 52.3946 67.6269C50.4794 64.2981 49.5218 60.4677 49.5218 56.1813C49.5218 50.2078 50.9354 44.7358 53.8082 39.9478C56.681 35.0686 60.5114 31.375 65.1626 28.5934C69.9506 25.8574 75.0578 24.535 80.5754 24.535C87.2786 24.535 92.6138 26.4502 96.581 30.3718C100.503 34.0654 102.509 39.3094 102.509 46.1038ZM72.6866 68.9037C76.517 68.9037 79.8458 67.8093 82.8098 65.8029C85.7738 63.7965 88.1906 60.9237 89.8322 57.4581C91.5194 53.9925 92.3402 50.1622 92.3402 46.2406C92.3402 42.1822 91.1546 39.0814 88.7378 36.8014C86.3666 34.5214 83.129 33.4726 78.8426 33.4726C75.377 33.4726 72.1394 34.4302 69.3122 36.4366C66.4394 38.443 64.0682 41.0878 62.381 44.4166C60.6938 47.7454 59.873 51.3478 59.873 55.1781C60.0098 64.2525 64.3418 68.9037 72.6866 68.9037Z" fill="#3A3E46"/>
<path d="M190.927 46.1038C190.927 52.1686 189.605 57.6861 186.869 62.5653C184.133 67.4445 180.439 71.1381 175.788 73.9197C171.137 76.6557 166.121 77.9781 160.649 77.9781C156.134 77.9781 152.076 77.0205 148.702 75.2421C145.373 73.4637 142.637 70.8189 140.813 67.6269C138.898 64.2981 137.94 60.4677 137.94 56.1813C137.94 50.2078 139.354 44.7358 142.226 39.9478C145.099 35.0686 148.93 31.375 153.581 28.5934C158.369 25.8574 163.476 24.535 168.994 24.535C175.697 24.535 181.032 26.4502 184.999 30.3718C188.921 34.0654 190.927 39.3094 190.927 46.1038ZM161.105 68.9037C164.935 68.9037 168.264 67.8093 171.228 65.8029C174.192 63.7965 176.609 60.9237 178.25 57.4581C179.938 53.9925 180.758 50.1622 180.758 46.2406C180.758 42.1822 179.573 39.0814 177.156 36.8014C174.785 34.5214 171.547 33.4726 167.261 33.4726C163.795 33.4726 160.558 34.4302 157.73 36.4366C154.858 38.443 152.486 41.0878 150.799 44.4166C149.112 47.7454 148.291 51.3478 148.291 55.1781C148.474 64.2525 152.623 68.9037 161.105 68.9037Z" fill="#3A3E46"/>
<path d="M231.283 34.0653C225.082 34.0653 219.929 36.0717 216.007 40.2669C212.086 44.4621 209.213 50.2989 207.526 57.8228L205.383 67.8548H213.727L211.721 76.4276H187.006L189.012 67.8548H195.715L203.467 34.3389H195.579L197.722 25.6293H214.183L210.855 40.0845C213.819 34.7037 217.056 30.8733 220.522 28.5021C223.987 26.1309 228.502 24.8997 234.019 24.8997H236.026L233.746 34.2021C232.469 34.1565 231.648 34.0653 231.283 34.0653Z" fill="#3A3E46"/>
<path d="M311.722 24.5332C316.008 24.5332 319.975 25.7188 323.304 28.1356C326.633 30.5524 329.278 33.7444 331.056 37.8028C332.834 41.8612 333.792 46.1476 333.792 50.9356C333.792 55.7236 332.971 60.1468 331.147 64.2052C329.369 68.2636 326.861 71.5012 323.532 73.8724C320.294 76.2436 316.51 77.4748 312.178 77.4748C306.797 77.4748 301.918 75.3316 297.358 70.7716V76.6084H272.414V64.9348H281.261V15.322H272.414V3.64844H297.358V31.5556C301.462 26.9044 306.25 24.5332 311.722 24.5332ZM307.298 64.7068C310.399 64.7068 312.77 63.3844 314.594 60.8764C316.373 58.3684 317.239 54.9028 317.239 50.6164C317.239 46.4212 316.418 43.2292 314.594 40.9492C312.816 38.806 310.399 37.6204 307.435 37.6204C304.334 37.6204 301.826 38.9428 300.048 41.4508C298.27 43.9588 297.403 47.2876 297.403 51.4828C297.403 55.4044 298.361 58.5052 300.139 61.0132C301.826 63.5212 304.334 64.7068 307.298 64.7068Z" fill="#3A3E46"/>
<path d="M386.323 46.0125V64.8908H394.577V76.5644H370.226V72.6428C365.575 75.7436 361.015 77.4308 356.364 77.4308C350.755 77.4308 346.332 76.0172 343.003 73.1444C339.674 70.2716 337.987 66.4412 337.987 61.562C337.987 56.4092 339.902 52.2596 343.596 49.1588C347.29 46.0581 352.306 44.5077 358.507 44.5077C360.65 44.5077 362.566 44.7357 364.253 45.2373C365.94 45.6933 367.946 46.5597 370.09 47.6085V43.5501C370.09 40.9053 369.269 38.8989 367.718 37.3485C366.031 35.7981 363.66 35.0685 360.422 35.0685C356.957 35.0685 353.719 36.3909 351.12 39.1269L338.124 36.7557C342.046 28.7757 350.299 24.7173 362.702 24.7173C371.184 24.7173 377.249 26.4957 380.942 29.9613C384.499 33.2445 386.323 38.7165 386.323 46.0125ZM359.921 67.2164C362.794 67.2164 366.259 65.438 370.181 61.9724V57.458C366.715 55.178 363.478 54.1292 360.65 54.1292C358.37 54.1292 356.592 54.722 355.27 55.8164C354.084 56.9108 353.491 58.4612 353.491 60.4676C353.354 64.982 355.634 67.2164 359.921 67.2164Z" fill="#3A3E46"/>
<path d="M422.484 63.8877C425.22 63.8877 428.229 62.7021 431.421 60.1941V37.5309H423.669V25.5837H447.655V64.7085H456V76.382H431.513V72.1869C426.497 75.5156 421.481 77.2028 416.693 77.2028C411.813 77.2028 407.983 75.8805 405.247 73.1445C402.511 70.4085 401.189 66.5781 401.189 61.7901V37.6221H393.573V25.7205H417.331V57.6861C417.331 60.0573 417.696 61.7445 418.517 62.5653C419.383 63.4317 420.432 63.8877 422.484 63.8877Z" fill="#3A3E46"/>
<path d="M107.753 26.1744H118.013L120.019 17.328C120.749 14.2272 121.706 11.5824 122.983 9.4392C124.306 7.296 125.856 5.5176 127.498 4.0584C129.276 2.6448 131.191 1.6872 133.471 0.9576C135.614 0.3648 137.986 0 140.63 0C142.181 0 143.594 0.1368 144.917 0.228C146.239 0.456 147.425 0.684 148.519 0.9576C149.614 1.1856 150.526 1.5504 151.392 1.9152C152.213 2.28 152.942 2.6448 153.535 2.8728L148.519 10.26C147.698 9.6672 146.513 9.1656 145.054 8.8464C143.64 8.3904 141.953 8.2536 140.266 8.2536C137.621 8.2536 135.478 8.9832 133.699 10.3968C131.921 11.8104 130.598 14.3184 129.778 17.784L127.862 26.1288H141.451L139.445 34.4736H125.947L111.127 99.0432H101.232L116.052 34.4736H105.792L107.753 26.1744Z" fill="#3A3E46"/>
<path d="M239.993 24.9883H248.338L250.846 14.5003L261.106 10.3051L257.777 24.9883H268.265L265.985 34.2907H255.497L248.93 61.8787C248.794 62.4715 248.566 63.2011 248.474 63.7939C248.338 64.5235 248.246 65.1163 248.246 65.9371C248.246 67.3507 248.611 68.4451 249.432 69.0379C250.253 69.6307 251.438 69.9955 253.126 69.9955C254.904 69.9955 257.184 69.5395 259.829 68.4451L260.65 75.3763C258.962 76.1971 257.321 76.7899 255.77 77.2915C254.22 77.7475 252.442 78.0211 250.526 78.0211C248.52 78.0211 246.605 77.7931 244.918 77.2915C243.23 76.8355 241.817 75.9691 240.722 74.7835C239.628 73.5979 238.944 72.1387 238.579 70.2691C238.214 68.3539 238.351 66.0739 238.944 63.4747L246.103 34.4731H237.85L239.993 24.9883Z" fill="#3A3E46"/>
<rect x="468" y="64.5536" width="12" height="12" fill="#FED053"/>
</svg>
