<svg width="126" height="77" fill="none" xmlns="http://www.w3.org/2000/svg"><path d="M41.762 14.294h-19.36M38.664 27.048h-26.62M35.881 39.826H2M29.637 62.284H14.1M54.419 62.284h19.748L87.817 2h-64.06M84.404 19.57h16.868c14.69 0 25.507 13.722 22.095 28l-3.533 14.714h-9.1M85.977 62.284h-11.81" stroke="#3A3E46" stroke-width="4" stroke-miterlimit="10" stroke-linecap="round"/><path d="M42.028 74.675c6.843 0 12.391-5.547 12.391-12.39 0-6.844-5.548-12.392-12.39-12.392-6.844 0-12.392 5.548-12.392 12.391s5.548 12.391 12.391 12.391zM98.368 74.675c6.843 0 12.391-5.547 12.391-12.39 0-6.844-5.548-12.392-12.391-12.392-6.844 0-12.391 5.548-12.391 12.391s5.547 12.391 12.39 12.391z" stroke="#3A3E46" stroke-width="4" stroke-miterlimit="10" stroke-linecap="round"/></svg>