<svg width="137" height="88" fill="none" xmlns="http://www.w3.org/2000/svg"><path d="M46.295 14.186H24.727m18.117 14.208H13.188m26.556 14.208H2M43.896 2h6.875l13.237 54.81h55.268a6.981 6.981 0 006.821-5.5l8.061-37.124H53.682m3.37 14.208h74.113M60.611 42.602h67.346M81.748 56.81L71.449 14.186M99.46 56.81L89.162 14.186M117.2 56.81l-10.299-42.624M64.008 56.81l-5.419 13.938h60.606" stroke="#3A3E46" stroke-width="4" stroke-miterlimit="10" stroke-linecap="round"/><path d="M58.59 85.252a7.252 7.252 0 100-14.504 7.252 7.252 0 000 14.504zm60.605 0a7.252 7.252 0 100-14.504 7.252 7.252 0 000 14.504z" stroke="#3A3E46" stroke-width="4" stroke-miterlimit="10" stroke-linecap="round"/></svg>