<svg width="126" height="77" fill="none" xmlns="http://www.w3.org/2000/svg"><path d="M41.762 14.294h-19.36m16.262 12.754h-26.62m23.837 12.778H2m27.637 22.458H14.1m40.319 0h19.748L87.817 2h-64.06m60.647 17.57h16.868c14.69 0 25.507 13.722 22.095 28l-3.533 14.714h-9.1m-24.757 0h-11.81" stroke="#3A3E46" stroke-width="4" stroke-miterlimit="10" stroke-linecap="round"/><path d="M42.028 74.675c6.843 0 12.391-5.547 12.391-12.39 0-6.844-5.548-12.392-12.39-12.392-6.844 0-12.392 5.548-12.392 12.391s5.548 12.391 12.391 12.391zm56.34 0c6.843 0 12.391-5.547 12.391-12.39 0-6.844-5.548-12.392-12.391-12.392-6.844 0-12.391 5.548-12.391 12.391s5.547 12.391 12.39 12.391z" stroke="#3A3E46" stroke-width="4" stroke-miterlimit="10" stroke-linecap="round"/></svg>