<svg width="480" height="100" fill="none" xmlns="http://www.w3.org/2000/svg"><path d="M39.034 29.414l1.094-3.694h8.482l-3.33 14.182h-8.526c-.137-2.143-1.095-3.922-2.964-5.153-1.916-1.322-4.515-1.915-7.89-1.915-2.735 0-5.015.593-6.566 1.687-1.55 1.095-2.37 2.508-2.37 4.195 0 1.55.455 2.736 1.55 3.603 1.094.82 3.237 1.915 6.566 3.237l2.736 1.095c5.746 2.371 9.53 4.788 11.582 7.159 2.052 2.371 2.964 5.244 2.964 8.846 0 4.515-1.687 8.117-5.152 10.853-3.466 2.736-8.482 4.059-14.912 4.059-6.064 0-10.488-1.414-13.132-4.287l-.593 3.329H0l3.329-14.182h8.573c0 2.372 1.094 4.287 3.1 5.61 2.007 1.322 4.788 2.006 8.254 2.006 2.964 0 5.38-.593 7.16-1.779 1.778-1.185 2.644-2.736 2.644-4.651 0-1.915-.73-3.466-2.28-4.651-1.55-1.186-4.195-2.645-7.889-4.059l-3.693-1.413c-3.83-1.687-6.704-3.603-8.573-5.746-1.87-2.143-2.736-4.788-2.736-7.889 0-2.644.73-5.152 2.28-7.296 1.55-2.143 3.693-4.058 6.566-5.244 2.873-1.322 5.974-1.915 9.44-1.915 4.97-.41 9.393 1.003 12.859 4.013zM102.509 46.104c0 6.065-1.322 11.582-4.058 16.461-2.736 4.88-6.43 8.573-11.081 11.355-4.651 2.736-9.667 4.058-15.14 4.058-4.514 0-8.572-.957-11.947-2.736a19.53 19.53 0 01-7.888-7.615c-1.916-3.329-2.873-7.16-2.873-11.446 0-5.973 1.413-11.445 4.286-16.233 2.873-4.88 6.703-8.573 11.355-11.355 4.788-2.736 9.895-4.058 15.412-4.058 6.704 0 12.039 1.915 16.006 5.837 3.922 3.693 5.928 8.937 5.928 15.732zm-29.822 22.8c3.83 0 7.159-1.095 10.123-3.101 2.964-2.006 5.38-4.88 7.022-8.345 1.687-3.465 2.508-7.296 2.508-11.217 0-4.059-1.185-7.16-3.602-9.44-2.371-2.28-5.609-3.328-9.895-3.328-3.466 0-6.704.957-9.53 2.964a21.458 21.458 0 00-6.932 7.98c-1.687 3.328-2.508 6.93-2.508 10.761.137 9.075 4.469 13.726 12.814 13.726zM190.927 46.104c0 6.065-1.322 11.582-4.058 16.461-2.736 4.88-6.43 8.573-11.081 11.355-4.651 2.736-9.667 4.058-15.139 4.058-4.515 0-8.573-.957-11.947-2.736-3.329-1.778-6.065-4.423-7.889-7.615-1.915-3.329-2.873-7.16-2.873-11.446 0-5.973 1.414-11.445 4.286-16.233 2.873-4.88 6.704-8.573 11.355-11.355 4.788-2.736 9.895-4.058 15.413-4.058 6.703 0 12.038 1.915 16.005 5.837 3.922 3.693 5.928 8.937 5.928 15.732zm-29.822 22.8c3.83 0 7.159-1.095 10.123-3.101 2.964-2.006 5.381-4.88 7.022-8.345 1.688-3.465 2.508-7.296 2.508-11.217 0-4.059-1.185-7.16-3.602-9.44-2.371-2.28-5.609-3.328-9.895-3.328-3.466 0-6.703.957-9.531 2.964a21.462 21.462 0 00-6.931 7.98c-1.687 3.328-2.508 6.93-2.508 10.761.183 9.075 4.332 13.726 12.814 13.726zM231.283 34.065c-6.201 0-11.354 2.007-15.276 6.202-3.921 4.195-6.794 10.032-8.481 17.556l-2.143 10.032h8.344l-2.006 8.573h-24.715l2.006-8.573h6.703l7.752-33.516h-7.888l2.143-8.71h16.461l-3.328 14.455c2.964-5.38 6.201-9.21 9.667-11.582 3.465-2.371 7.98-3.602 13.497-3.602h2.007l-2.28 9.302c-1.277-.045-2.098-.137-2.463-.137zM311.722 24.533c4.286 0 8.253 1.186 11.582 3.603 3.329 2.416 5.974 5.608 7.752 9.667 1.778 4.058 2.736 8.345 2.736 13.133 0 4.788-.821 9.21-2.645 13.27-1.778 4.058-4.286 7.295-7.615 9.666-3.238 2.372-7.022 3.603-11.354 3.603-5.381 0-10.26-2.143-14.82-6.703v5.836h-24.944V64.935h8.847V15.322h-8.847V3.648h24.944v27.908c4.104-4.652 8.892-7.023 14.364-7.023zm-4.424 40.174c3.101 0 5.472-1.323 7.296-3.83 1.779-2.509 2.645-5.974 2.645-10.26 0-4.196-.821-7.388-2.645-9.668-1.778-2.143-4.195-3.329-7.159-3.329-3.101 0-5.609 1.323-7.387 3.83-1.778 2.509-2.645 5.838-2.645 10.033 0 3.921.958 7.022 2.736 9.53 1.687 2.508 4.195 3.694 7.159 3.694zM386.323 46.013V64.89h8.254v11.673h-24.351v-3.921c-4.651 3.1-9.211 4.788-13.862 4.788-5.609 0-10.032-1.414-13.361-4.287-3.329-2.872-5.016-6.703-5.016-11.582 0-5.153 1.915-9.302 5.609-12.403 3.694-3.1 8.71-4.651 14.911-4.651 2.143 0 4.059.228 5.746.73 1.687.455 3.693 1.322 5.837 2.37V43.55c0-2.645-.821-4.651-2.372-6.201-1.687-1.55-4.058-2.28-7.296-2.28-3.465 0-6.703 1.322-9.302 4.058l-12.996-2.371c3.922-7.98 12.175-12.039 24.578-12.039 8.482 0 14.547 1.779 18.24 5.244 3.557 3.284 5.381 8.756 5.381 16.052zm-26.402 21.203c2.873 0 6.338-1.778 10.26-5.244v-4.514c-3.466-2.28-6.703-3.329-9.531-3.329-2.28 0-4.058.593-5.38 1.687-1.186 1.095-1.779 2.645-1.779 4.652-.137 4.514 2.143 6.748 6.43 6.748zM422.484 63.888c2.736 0 5.745-1.186 8.937-3.694V37.531h-7.752V25.584h23.986v39.124H456v11.674h-24.487v-4.195c-5.016 3.329-10.032 5.016-14.82 5.016-4.88 0-8.71-1.323-11.446-4.059-2.736-2.736-4.058-6.566-4.058-11.354V37.622h-7.616V25.721h23.758v31.965c0 2.371.365 4.059 1.186 4.88.866.866 1.915 1.322 3.967 1.322zM107.753 26.174h10.26l2.006-8.846c.73-3.1 1.687-5.746 2.964-7.889a24.143 24.143 0 014.515-5.38c1.778-1.414 3.693-2.372 5.973-3.101A26.663 26.663 0 01140.63 0c1.551 0 2.964.137 4.287.228 1.322.228 2.508.456 3.602.73 1.095.228 2.007.592 2.873.957.821.365 1.55.73 2.143.958l-5.016 7.387c-.821-.593-2.006-1.094-3.465-1.414-1.414-.456-3.101-.592-4.788-.592-2.645 0-4.788.73-6.567 2.143-1.778 1.413-3.101 3.921-3.921 7.387l-1.916 8.345h13.589l-2.006 8.345h-13.498l-14.82 64.57h-9.895l14.82-64.57h-10.26l1.961-8.3zM239.993 24.988h8.345l2.508-10.488 10.26-4.195-3.329 14.683h10.488l-2.28 9.303h-10.488l-6.567 27.588c-.136.593-.364 1.322-.456 1.915-.136.73-.228 1.322-.228 2.143 0 1.414.365 2.508 1.186 3.1.821.594 2.006.959 3.694.959 1.778 0 4.058-.456 6.703-1.55l.821 6.93c-1.688.821-3.329 1.414-4.88 1.915-1.55.457-3.328.73-5.244.73-2.006 0-3.921-.228-5.608-.73-1.688-.456-3.101-1.322-4.196-2.507-1.094-1.186-1.778-2.645-2.143-4.515-.365-1.915-.228-4.195.365-6.794l7.159-29.002h-8.253l2.143-9.485z" fill="#3A3E46"/><path fill="#FED053" d="M468 64.554h12v12h-12z"/></svg>